HIERARCHY
ROOT joint_Root
{
	OFFSET 0.0 0.0 0.0
	CHANNELS 6 Xposition Yposition Zposition Zrotation Xrotation Yrotation 
	JOINT Hips
	{
		OFFSET -0.726466 93.3139 -2.00062
		CHANNELS 6 Xposition Yposition Zposition Zrotation Xrotation Yrotation 
		JOINT Spine
		{
			OFFSET 15.7357 0.0 0.0
			CHANNELS 6 Xposition Yposition Zposition Zrotation Xrotation Yrotation 
			JOINT Chest
			{
				OFFSET 8.98455 -0.406207 0.0
				CHANNELS 6 Xposition Yposition Zposition Zrotation Xrotation Yrotation 
				JOINT Neck
				{
					OFFSET 16.3773 0.0 0.0
					CHANNELS 6 Xposition Yposition Zposition Zrotation Xrotation Yrotation 
					JOINT Head
					{
						OFFSET 6.45672 0.0 0.0
						CHANNELS 6 Xposition Yposition Zposition Zrotation Xrotation Yrotation 
						End Site
						{
							OFFSET 0.0 0.0 0.0
						}
					}
				}
				JOINT Shoulder_L
				{
					OFFSET 12.9942 -0.242716 4.98039
					CHANNELS 6 Xposition Yposition Zposition Zrotation Xrotation Yrotation 
					JOINT UpperArm_L
					{
						OFFSET 5.34809 0.0 0.0
						CHANNELS 6 Xposition Yposition Zposition Zrotation Xrotation Yrotation 
						JOINT LowerArm_L
						{
							OFFSET 24.3286 1.87007e-05 0.0
							CHANNELS 6 Xposition Yposition Zposition Zrotation Xrotation Yrotation 
							JOINT Hand_L
							{
								OFFSET 22.2916 0.0 0.0
								CHANNELS 6 Xposition Yposition Zposition Zrotation Xrotation Yrotation 
								End Site
								{
									OFFSET 0.0 0.0 0.0
								}
							}
						}
					}
				}
				JOINT Shoulder_R
				{
					OFFSET 12.9945 -0.242716 -4.98039
					CHANNELS 6 Xposition Yposition Zposition Zrotation Xrotation Yrotation 
					JOINT UpperArm_R
					{
						OFFSET -5.34813 0.0 0.0
						CHANNELS 6 Xposition Yposition Zposition Zrotation Xrotation Yrotation 
						JOINT LowerArm_R
						{
							OFFSET -24.3289 0.000322201 0.0
							CHANNELS 6 Xposition Yposition Zposition Zrotation Xrotation Yrotation 
							JOINT Hand_R
							{
								OFFSET -22.2915 -0.000108084 0.0
								CHANNELS 6 Xposition Yposition Zposition Zrotation Xrotation Yrotation 
								End Site
								{
									OFFSET 0.0 0.0 0.0
								}
							}
						}
					}
				}
			}
		}
		JOINT UpperLeg_L
		{
			OFFSET -2.19248 -6.46944 0.0
			CHANNELS 6 Xposition Yposition Zposition Zrotation Xrotation Yrotation 
			JOINT LowerLeg_L
			{
				OFFSET 39.0811 0.0 -1.23785e-05
				CHANNELS 6 Xposition Yposition Zposition Zrotation Xrotation Yrotation 
				JOINT Foot_L
				{
					OFFSET 40.9854 0.0 -1.26872e-05
					CHANNELS 6 Xposition Yposition Zposition Zrotation Xrotation Yrotation 
					JOINT Toes_L
					{
						OFFSET 11.7543 0.0 0.0
						CHANNELS 6 Xposition Yposition Zposition Zrotation Xrotation Yrotation 
						End Site
						{
							OFFSET 0.0 0.0 0.0
						}
					}
				}
			}
		}
		JOINT UpperLeg_R
		{
			OFFSET -2.19251 6.46944 0.0
			CHANNELS 6 Xposition Yposition Zposition Zrotation Xrotation Yrotation 
			JOINT LowerLeg_R
			{
				OFFSET -39.0811 -0.00228153 -0.0401928
				CHANNELS 6 Xposition Yposition Zposition Zrotation Xrotation Yrotation 
				JOINT Foot_R
				{
					OFFSET -40.9854 0.0 0.0
					CHANNELS 6 Xposition Yposition Zposition Zrotation Xrotation Yrotation 
					JOINT Toes_R
					{
						OFFSET -11.7543 0.0 0.0
						CHANNELS 6 Xposition Yposition Zposition Zrotation Xrotation Yrotation 
						End Site
						{
							OFFSET 0.0 0.0 0.0
						}
					}
				}
			}
		}
	}
}
MOTION
Frames:	5
Frame Time:	0.0333333
0.000000 0.000000 0.000000 0.000000 0.000000 -0.000000 -1.942110 91.312500 94.631100 -90.041500 9.769960 -174.270000 15.735700 0.000005 -0.000001 113.163000 83.556300 -113.066000 8.984550 -0.406207 -0.000000 4.091310 5.058550 0.013535 16.377300 -0.000001 -0.000001 2.915330 0.350596 2.316800 6.456720 -0.000001 -0.000000 6.325510 -0.846267 -5.088260 12.994200 -0.242716 4.980390 -89.570800 -1.110150 -68.860200 5.348090 -0.000007 -0.000001 -78.134200 20.224900 4.446120 24.328600 0.000019 0.000005 3.030790 17.422300 -10.028200 22.291600 -0.000001 0.000005 5.300270 5.356990 -1.587750 12.994500 -0.242716 -4.980390 88.033000 7.238230 -74.752900 -5.348130 -0.000001 -0.000004 -53.037700 29.087500 -33.543200 -24.328900 0.000322 -0.000009 3.196890 6.408760 -26.593300 -22.291500 -0.000108 -0.000004 11.581600 5.372860 -2.074710 -2.192480 -6.469440 -0.000000 -177.988000 -11.075900 -19.851500 39.081100 -0.000007 -0.000012 0.021087 -0.032915 32.645100 40.985400 -0.000006 -0.000013 1.707780 -4.745860 -51.266400 11.754300 -0.000000 0.000003 -0.007279 -0.082048 -19.917200 -2.192510 6.469440 -0.000001 179.571000 6.945130 -176.979000 -39.081100 -0.002282 -0.040193 -0.202773 0.477246 23.356400 -40.985400 0.000008 0.000006 2.345710 2.471400 -71.110500 -11.754300 -0.000006 -0.000006 -0.007490 -0.083818 -19.985700
0.000000 0.000000 0.000000 0.000000 0.000000 -0.000000 -1.954110 90.960600 91.562600 -89.584400 10.510600 -175.036000 15.735700 0.000005 -0.000001 115.647000 83.669000 -115.445000 8.984550 -0.406207 -0.000000 3.653000 5.466040 0.229507 16.377300 -0.000001 -0.000001 2.765580 0.549690 2.253600 6.456720 -0.000001 -0.000000 6.194950 -0.892990 -5.254980 12.994200 -0.242716 4.980390 -89.523300 -1.216780 -68.601900 5.348090 -0.000007 -0.000001 -77.714300 19.609400 6.119700 24.328600 0.000019 0.000005 3.045380 17.119600 -10.244500 22.291600 -0.000001 0.000005 6.490970 5.369670 -1.976310 12.994500 -0.242716 -4.980390 88.092500 7.113090 -74.946500 -5.348130 -0.000001 -0.000004 -51.509400 28.505100 -35.300400 -24.328900 0.000322 -0.000009 3.271550 5.581770 -30.450900 -22.291500 -0.000108 -0.000004 12.147400 5.384500 -2.439130 -2.192480 -6.469440 -0.000000 -176.973000 -10.491500 -17.666400 39.081100 -0.000007 -0.000012 0.005067 -0.016718 16.862000 40.985400 -0.000006 -0.000013 1.164240 -2.491230 -49.269300 11.754300 -0.000000 0.000003 -0.007715 -0.085702 -20.066400 -2.192510 6.469440 -0.000001 178.859000 8.513460 -174.674000 -39.081100 -0.002282 -0.040193 -0.207932 0.526675 21.856100 -40.985400 0.000008 0.000006 2.227030 4.800430 -72.537600 -11.754300 -0.000006 -0.000006 -0.006719 -0.077231 -19.716900
0.000000 0.000000 0.000000 0.000000 0.000000 -0.000000 -2.018820 90.254400 88.198900 -89.142300 11.157700 -175.783000 15.735700 0.000005 -0.000001 118.304000 83.815200 -118.023000 8.984550 -0.406207 -0.000000 3.124590 5.847400 0.401953 16.377300 -0.000001 -0.000001 2.668330 0.606182 2.262540 6.456720 -0.000001 -0.000000 6.146860 -0.928006 -5.323040 12.994200 -0.242716 4.980390 -89.463400 -1.363440 -68.513700 5.348090 -0.000007 -0.000001 -77.288500 18.620300 7.066790 24.328600 0.000019 0.000005 2.960590 17.299900 -9.865860 22.291600 -0.000001 0.000005 6.817690 5.368990 -1.955360 12.994500 -0.242716 -4.980390 88.075900 7.201760 -74.998500 -5.348130 -0.000001 -0.000004 -50.188700 28.143100 -36.214100 -24.328900 0.000322 -0.000009 3.496440 5.166420 -34.166000 -22.291500 -0.000108 -0.000004 12.796500 5.394360 -2.755050 -2.192480 -6.469440 -0.000000 -176.216000 -10.732000 -17.141200 39.081100 -0.000007 -0.000012 0.005170 -0.045331 6.506730 40.985400 -0.000006 -0.000013 -0.477402 -0.470841 -50.171000 11.754300 -0.000000 0.000003 -0.007810 -0.086481 -20.098200 -2.192510 6.469440 -0.000001 178.210000 9.270670 -172.746000 -39.081100 -0.002282 -0.040193 -0.216043 0.552798 21.644500 -40.985400 0.000008 0.000006 2.463690 6.042270 -74.881300 -11.754300 -0.000006 -0.000006 -0.006352 -0.074004 -19.585200
0.000000 0.000000 0.000000 0.000000 0.000000 -0.000000 -2.226140 89.451000 84.544200 -88.796800 11.854100 -176.468000 15.735700 0.000005 -0.000001 121.103000 83.968600 -120.790000 8.984550 -0.406207 -0.000000 2.559530 6.211960 0.487982 16.377300 -0.000001 -0.000001 2.594050 0.665314 2.328490 6.456720 -0.000001 -0.000000 6.120230 -0.966030 -5.327050 12.994200 -0.242716 4.980390 -89.474000 -1.324660 -68.338500 5.348090 -0.000007 -0.000001 -76.720100 17.919800 7.155660 24.328600 0.000019 0.000005 2.755540 17.722600 -8.984820 22.291600 -0.000001 0.000005 6.666260 5.352180 -1.442830 12.994500 -0.242716 -4.980390 88.002200 7.507360 -75.051400 -5.348130 -0.000001 -0.000004 -49.342600 27.903000 -36.267600 -24.328900 0.000322 -0.000009 3.731980 4.930420 -37.204900 -22.291500 -0.000108 -0.000004 13.247200 5.404090 -3.070420 -2.192480 -6.469440 -0.000000 -176.761000 -13.009600 -18.223400 39.081100 -0.000007 -0.000012 -0.000020 0.000391 2.788230 40.985400 -0.000006 -0.000013 -0.958164 -0.001659 -53.559000 11.754300 -0.000000 0.000003 -0.007632 -0.085012 -20.038200 -2.192510 6.469440 -0.000001 178.269000 8.864900 -170.652000 -39.081100 -0.002282 -0.040193 0.012816 -0.024172 21.449900 -40.985400 0.000008 0.000006 6.662480 4.359070 -77.897000 -11.754300 -0.000006 -0.000006 -0.007027 -0.079898 -19.825700
0.000000 0.000000 0.000000 0.000000 0.000000 -0.000000 -2.653980 88.852400 80.581500 -89.499700 11.933000 -176.539000 15.735700 0.000005 -0.000001 120.914000 84.053800 -120.897000 8.984550 -0.406207 -0.000000 2.448920 6.103930 -0.096436 16.377300 -0.000001 -0.000001 2.493870 0.632104 2.513970 6.456720 -0.000001 -0.000000 6.017230 -1.031450 -5.463480 12.994200 -0.242716 4.980390 -89.696700 -0.761795 -68.287000 5.348090 -0.000007 -0.000001 -75.879800 17.374000 6.247330 24.328600 0.000019 0.000005 2.522130 18.784300 -7.789330 22.291600 -0.000001 0.000005 6.888420 5.334240 -0.911520 12.994500 -0.242716 -4.980390 87.867000 8.121430 -75.230100 -5.348130 -0.000001 -0.000004 -49.120000 27.668400 -35.544300 -24.328900 0.000322 -0.000009 3.676670 4.565450 -38.922800 -22.291500 -0.000108 -0.000004 13.859900 5.414300 -3.407250 -2.192480 -6.469440 -0.000000 -178.217000 -13.636200 -22.396500 39.081100 -0.000007 -0.000012 0.012328 -0.072887 9.600470 40.985400 -0.000006 -0.000013 0.466550 -1.878930 -53.408700 11.754300 -0.000000 0.000003 -0.008295 -0.090433 -20.259600 -2.192510 6.469440 -0.000001 176.520000 8.225250 -169.756000 -39.081100 -0.002282 -0.040193 0.041660 -0.086615 23.879900 -40.985400 0.000008 0.000006 6.434040 4.084320 -77.338500 -11.754300 -0.000006 -0.000006 -0.012218 -0.119523 -21.445800
